<?xml version="1.0" encoding="utf-8"?><svg xmlns="http://www.w3.org/2000/svg" xmlns:xlink="http://www.w3.org/1999/xlink"><symbol viewBox="0 0 30 23" id="basket" xmlns="http://www.w3.org/2000/svg"><path d="m29.999 0-.929 2.5H26.66l-4.342 15H5.767L0 3.75h21.015l-.705 2.5H3.759L7.43 15h13.035l4.29-15H30ZM10.624 18.75a1.876 1.876 0 1 0 .001 3.751 1.876 1.876 0 0 0-.001-3.751ZM19.249 10l-2.375 8.75a1.875 1.875 0 1 0 0 3.75 1.875 1.875 0 0 0 0-3.75L19.249 10Z"/></symbol><symbol viewBox="0 0 24 24" id="heart" xmlns="http://www.w3.org/2000/svg"><path d="M12 4.248C8.852-1.154 0 .423 0 7.192 0 11.853 5.571 16.619 12 23c6.43-6.381 12-11.147 12-15.808C24 .4 15.125-1.114 12 4.248z"/></symbol><symbol viewBox="0 0 24 24" id="user" xmlns="http://www.w3.org/2000/svg"><path d="M20.823 18.096c-3.44-.794-6.64-1.49-5.09-4.418C20.453 4.766 16.983 0 12 0 6.918 0 3.536 4.949 8.268 13.678c1.597 2.945-1.725 3.641-5.09 4.418C.105 18.806-.01 20.332 0 23l.004 1h23.99l.005-.969c.012-2.688-.092-4.222-3.176-4.935Z"/></symbol></svg>