<svg xmlns="http://www.w3.org/2000/svg" id="firework" x="0" y="0" version="1.1" viewBox="0 0 64 64" xml:space="preserve"><path fill="#298596" d="M49.404 14.596a2.501 2.501 0 0 0-3.536 0L29.896 30.568 18.949 41.516a2.501 2.501 0 0 0 3.536 3.536l5-5 5.948-5.948 15.973-15.973a2.5 2.5 0 0 0-.002-3.535z"></path><path fill="#298596" d="M35.538 32.002l9.514 9.514a2.501 2.501 0 01-3.536 3.536l-5-5L32 35.536M28.364 31.9L14.596 18.131a2.501 2.501 0 013.536-3.536L32 28.463"></path><path fill="#ed491f" d="M42.687 24.849l-3.536-3.536 6.718-6.718a2.501 2.501 0 013.536 3.536l-6.718 6.718zM21.313 24.849l3.536-3.536-6.718-6.718a2.501 2.501 0 00-3.536 3.536l6.718 6.718z"></path><path fill="none" stroke="#000" stroke-miterlimit="10" d="M49.404 14.596a2.501 2.501 0 0 0-3.536 0L29.896 30.568 18.949 41.516a2.501 2.501 0 0 0 3.536 3.536l5-5 5.948-5.948 15.973-15.973a2.5 2.5 0 0 0-.002-3.535z"></path><path fill="none" stroke="#000" stroke-miterlimit="10" d="M42.687 24.849l-3.536-3.536 6.718-6.718a2.501 2.501 0 013.536 3.536l-6.718 6.718zM51.288 19.784l4.949 4.949M39.267 7.763l4.949 4.949M56.237 7.763l-4.949 4.949M47.752 21.248v7M47.752 4.248v7"></path><g><path fill="none" stroke="#000" stroke-miterlimit="10" d="M42.752 16.248h-7M59.752 16.248h-7"></path></g><g><path fill="none" stroke="#000" stroke-miterlimit="10" d="M52.371 18.161l4.62 1.914M38.513 12.421l4.62 1.914M51.579 7.009l-1.914 4.62M56.991 12.421l-4.62 1.914M49.665 20.867l1.914 4.62M43.925 7.009l1.914 4.62"></path></g><path fill="none" stroke="#000" stroke-miterlimit="10" d="M19.096 44.904l-7.032 7.032-1.791 1.791-6.025 6.025"></path><g><path fill="none" stroke="#000" stroke-miterlimit="10" d="M35.538 32.002l9.514 9.514a2.501 2.501 0 01-3.536 3.536l-5-5L32 35.536M28.364 31.9L14.596 18.131a2.501 2.501 0 013.536-3.536L32 28.463"></path><path fill="none" stroke="#000" stroke-miterlimit="10" d="M21.313 24.849l3.536-3.536-6.718-6.718a2.501 2.501 0 00-3.536 3.536l6.718 6.718zM12.712 19.784l-4.949 4.949M24.733 7.763l-4.949 4.949M7.763 7.763l4.949 4.949M16.248 21.248v7M16.248 4.248v7"></path><g><path fill="none" stroke="#000" stroke-miterlimit="10" d="M21.248 16.248h7M4.248 16.248h7"></path></g><g><path fill="none" stroke="#000" stroke-miterlimit="10" d="M11.629 18.161l-4.62 1.914M25.487 12.421l-4.62 1.914M12.421 7.009l1.914 4.62M7.009 12.421l4.62 1.914M14.335 20.867l-1.914 4.62M20.075 7.009l-1.914 4.62"></path></g><path fill="none" stroke="#000" stroke-miterlimit="10" d="M44.904 44.904l7.032 7.032 1.791 1.791 6.025 6.025"></path></g></svg>