<svg width="24" height="24" viewBox="0 0 24 24" fill="none" xmlns="http://www.w3.org/2000/svg">
<path d="M1.94531 4.5H18.0545C18.1998 4.5 18.342 4.54221 18.4637 4.62149C18.5855 4.70077 18.6816 4.81371 18.7404 4.94658C18.7992 5.07946 18.8181 5.22655 18.7948 5.36998C18.7716 5.51341 18.7072 5.64699 18.6094 5.7545L12.4449 12.5355C12.3194 12.6735 12.2499 12.8534 12.2499 13.04V18.3486C12.2499 18.4721 12.2194 18.5936 12.1612 18.7025C12.1029 18.8114 12.0187 18.9042 11.9159 18.9726L8.91592 20.9727C8.80297 21.048 8.6717 21.0912 8.53611 21.0977C8.40052 21.1043 8.26569 21.0739 8.14601 21.0099C8.02632 20.9458 7.92626 20.8505 7.8565 20.734C7.78674 20.6176 7.7499 20.4844 7.7499 20.3486V13.04C7.7499 12.8534 7.68036 12.6735 7.55485 12.5355L1.39036 5.7545C1.29262 5.64699 1.22822 5.51341 1.20497 5.36998C1.18173 5.22655 1.20065 5.07946 1.25943 4.94658C1.31821 4.81371 1.41432 4.70077 1.53608 4.62149C1.65785 4.54221 1.80001 4.5 1.94531 4.5V4.5Z" stroke="#C8A06C" stroke-width="2" stroke-linecap="round" stroke-linejoin="round"/>
</svg>
