<svg xmlns="http://www.w3.org/2000/svg" viewBox="0 0 64 64" id="firework"><linearGradient id="a" x1="-.662" x2="47.86" y1="6.112" y2="52.286" gradientUnits="userSpaceOnUse"><stop offset=".209" stop-color="#fbb040"></stop><stop offset=".405" stop-color="#f18a3c"></stop><stop offset=".405" stop-color="#f18a3c"></stop><stop offset=".52" stop-color="#ef773c"></stop><stop offset=".639" stop-color="#ed6c3c"></stop><stop offset=".765" stop-color="#ed683c"></stop><stop offset=".905" stop-color="#e93e3a"></stop></linearGradient><path fill="url(#a)" d="M6 11a1 1 0 1 0-2 0v1a1 1 0 1 0 2 0v-1z"></path><linearGradient id="b" x1="-.722" x2="47.8" y1="6.176" y2="52.35" gradientUnits="userSpaceOnUse"><stop offset=".209" stop-color="#fbb040"></stop><stop offset=".405" stop-color="#f18a3c"></stop><stop offset=".405" stop-color="#f18a3c"></stop><stop offset=".52" stop-color="#ef773c"></stop><stop offset=".639" stop-color="#ed6c3c"></stop><stop offset=".765" stop-color="#ed683c"></stop><stop offset=".905" stop-color="#e93e3a"></stop></linearGradient><path fill="url(#b)" d="M7 15h1a1 1 0 1 0 0-2H7a1 1 0 1 0 0 2z"></path><linearGradient id="c" x1="-3.098" x2="45.424" y1="8.673" y2="54.847" gradientUnits="userSpaceOnUse"><stop offset=".209" stop-color="#fbb040"></stop><stop offset=".405" stop-color="#f18a3c"></stop><stop offset=".405" stop-color="#f18a3c"></stop><stop offset=".52" stop-color="#ef773c"></stop><stop offset=".639" stop-color="#ed6c3c"></stop><stop offset=".765" stop-color="#ed683c"></stop><stop offset=".905" stop-color="#e93e3a"></stop></linearGradient><path fill="url(#c)" d="M2 15h1a1 1 0 1 0 0-2H2a1 1 0 1 0 0 2z"></path><linearGradient id="d" x1="-3.159" x2="45.363" y1="8.736" y2="54.91" gradientUnits="userSpaceOnUse"><stop offset=".209" stop-color="#fbb040"></stop><stop offset=".405" stop-color="#f18a3c"></stop><stop offset=".405" stop-color="#f18a3c"></stop><stop offset=".52" stop-color="#ef773c"></stop><stop offset=".639" stop-color="#ed6c3c"></stop><stop offset=".765" stop-color="#ed683c"></stop><stop offset=".905" stop-color="#e93e3a"></stop></linearGradient><path fill="url(#d)" d="M5 18a1 1 0 0 0 1-1v-1a1 1 0 1 0-2 0v1a1 1 0 0 0 1 1z"></path><linearGradient id="e" x1="-12.119" x2="36.403" y1="18.153" y2="64.326" gradientUnits="userSpaceOnUse"><stop offset=".209" stop-color="#fbb040"></stop><stop offset=".405" stop-color="#f18a3c"></stop><stop offset=".405" stop-color="#f18a3c"></stop><stop offset=".52" stop-color="#ef773c"></stop><stop offset=".639" stop-color="#ed6c3c"></stop><stop offset=".765" stop-color="#ed683c"></stop><stop offset=".905" stop-color="#e93e3a"></stop></linearGradient><path fill="url(#e)" d="M25 52h-1a1 1 0 1 0 0 2h1a1 1 0 1 0 0-2z"></path><linearGradient id="f" x1="-9.683" x2="38.839" y1="15.592" y2="61.766" gradientUnits="userSpaceOnUse"><stop offset=".209" stop-color="#fbb040"></stop><stop offset=".405" stop-color="#f18a3c"></stop><stop offset=".405" stop-color="#f18a3c"></stop><stop offset=".52" stop-color="#ef773c"></stop><stop offset=".639" stop-color="#ed6c3c"></stop><stop offset=".765" stop-color="#ed683c"></stop><stop offset=".905" stop-color="#e93e3a"></stop></linearGradient><path fill="url(#f)" d="M28 50a1 1 0 1 0-2 0v1a1 1 0 1 0 2 0v-1z"></path><linearGradient id="g" x1="-9.743" x2="38.779" y1="15.656" y2="61.83" gradientUnits="userSpaceOnUse"><stop offset=".209" stop-color="#fbb040"></stop><stop offset=".405" stop-color="#f18a3c"></stop><stop offset=".405" stop-color="#f18a3c"></stop><stop offset=".52" stop-color="#ef773c"></stop><stop offset=".639" stop-color="#ed6c3c"></stop><stop offset=".765" stop-color="#ed683c"></stop><stop offset=".905" stop-color="#e93e3a"></stop></linearGradient><path fill="url(#g)" d="M29 54h1a1 1 0 1 0 0-2h-1a1 1 0 1 0 0 2z"></path><linearGradient id="h" x1="-12.18" x2="36.342" y1="18.216" y2="64.39" gradientUnits="userSpaceOnUse"><stop offset=".209" stop-color="#fbb040"></stop><stop offset=".405" stop-color="#f18a3c"></stop><stop offset=".405" stop-color="#f18a3c"></stop><stop offset=".52" stop-color="#ef773c"></stop><stop offset=".639" stop-color="#ed6c3c"></stop><stop offset=".765" stop-color="#ed683c"></stop><stop offset=".905" stop-color="#e93e3a"></stop></linearGradient><path fill="url(#h)" d="M27 57a1 1 0 0 0 1-1v-1a1 1 0 1 0-2 0v1a1 1 0 0 0 1 1z"></path><linearGradient id="i" x1="22.089" x2="70.61" y1="-17.795" y2="28.379" gradientUnits="userSpaceOnUse"><stop offset=".209" stop-color="#fbb040"></stop><stop offset=".405" stop-color="#f18a3c"></stop><stop offset=".405" stop-color="#f18a3c"></stop><stop offset=".52" stop-color="#ef773c"></stop><stop offset=".639" stop-color="#ed6c3c"></stop><stop offset=".765" stop-color="#ed683c"></stop><stop offset=".905" stop-color="#e93e3a"></stop></linearGradient><path fill="url(#i)" d="M55 15h1a1 1 0 1 0 0-2h-1a1 1 0 1 0 0 2z"></path><linearGradient id="j" x1="24.525" x2="73.047" y1="-20.355" y2="25.819" gradientUnits="userSpaceOnUse"><stop offset=".209" stop-color="#fbb040"></stop><stop offset=".405" stop-color="#f18a3c"></stop><stop offset=".405" stop-color="#f18a3c"></stop><stop offset=".52" stop-color="#ef773c"></stop><stop offset=".639" stop-color="#ed6c3c"></stop><stop offset=".765" stop-color="#ed683c"></stop><stop offset=".905" stop-color="#e93e3a"></stop></linearGradient><path fill="url(#j)" d="M59 11a1 1 0 1 0-2 0v1a1 1 0 1 0 2 0v-1z"></path><linearGradient id="k" x1="24.465" x2="72.987" y1="-20.292" y2="25.882" gradientUnits="userSpaceOnUse"><stop offset=".209" stop-color="#fbb040"></stop><stop offset=".405" stop-color="#f18a3c"></stop><stop offset=".405" stop-color="#f18a3c"></stop><stop offset=".52" stop-color="#ef773c"></stop><stop offset=".639" stop-color="#ed6c3c"></stop><stop offset=".765" stop-color="#ed683c"></stop><stop offset=".905" stop-color="#e93e3a"></stop></linearGradient><path fill="url(#k)" d="M60 15h1a1 1 0 1 0 0-2h-1a1 1 0 1 0 0 2z"></path><linearGradient id="l" x1="22.028" x2="70.55" y1="-17.731" y2="28.443" gradientUnits="userSpaceOnUse"><stop offset=".209" stop-color="#fbb040"></stop><stop offset=".405" stop-color="#f18a3c"></stop><stop offset=".405" stop-color="#f18a3c"></stop><stop offset=".52" stop-color="#ef773c"></stop><stop offset=".639" stop-color="#ed6c3c"></stop><stop offset=".765" stop-color="#ed683c"></stop><stop offset=".905" stop-color="#e93e3a"></stop></linearGradient><path fill="url(#l)" d="M58 18a1 1 0 0 0 1-1v-1a1 1 0 1 0-2 0v1a1 1 0 0 0 1 1z"></path><linearGradient id="m" x1="20.435" x2="68.957" y1="-16.057" y2="30.116" gradientUnits="userSpaceOnUse"><stop offset=".209" stop-color="#fbb040"></stop><stop offset=".405" stop-color="#f18a3c"></stop><stop offset=".405" stop-color="#f18a3c"></stop><stop offset=".52" stop-color="#ef773c"></stop><stop offset=".639" stop-color="#ed6c3c"></stop><stop offset=".765" stop-color="#ed683c"></stop><stop offset=".905" stop-color="#e93e3a"></stop></linearGradient><path fill="url(#m)" d="M44 3.75C44 2.233 42.767 1 41.25 1S38.5 2.233 38.5 3.75s1.233 2.75 2.75 2.75S44 5.267 44 3.75zm-3.5 0c0-.413.337-.75.75-.75s.75.337.75.75-.337.75-.75.75-.75-.337-.75-.75z"></path><linearGradient id="n" x1="1.231" x2="49.753" y1="4.123" y2="50.297" gradientUnits="userSpaceOnUse"><stop offset=".209" stop-color="#fbb040"></stop><stop offset=".405" stop-color="#f18a3c"></stop><stop offset=".405" stop-color="#f18a3c"></stop><stop offset=".52" stop-color="#ef773c"></stop><stop offset=".639" stop-color="#ed6c3c"></stop><stop offset=".765" stop-color="#ed683c"></stop><stop offset=".905" stop-color="#e93e3a"></stop></linearGradient><path fill="url(#n)" d="M61 58c-1.654 0-3 1.346-3 3s1.346 3 3 3 3-1.346 3-3-1.346-3-3-3zm0 4a1 1 0 1 1 0-2 1 1 0 0 1 0 2z"></path><linearGradient id="o" x1="12.095" x2="60.617" y1="-7.293" y2="38.881" gradientUnits="userSpaceOnUse"><stop offset=".209" stop-color="#fbb040"></stop><stop offset=".405" stop-color="#f18a3c"></stop><stop offset=".405" stop-color="#f18a3c"></stop><stop offset=".52" stop-color="#ef773c"></stop><stop offset=".639" stop-color="#ed6c3c"></stop><stop offset=".765" stop-color="#ed683c"></stop><stop offset=".905" stop-color="#e93e3a"></stop></linearGradient><path fill="url(#o)" d="M33.432 30.822a.998.998 0 0 0 1.315-.158l15.199-17.098a1.997 1.997 0 0 0-.466-3.044l-3.057-1.835a2.014 2.014 0 0 0-1.569-.211 2.006 2.006 0 0 0-1.231.998L33.114 29.536a1 1 0 0 0 .318 1.286zM45.908 9.545l-.515.857-.001-.001.516-.856zm-.512.858 3.057 1.834-9.783 11.005 6.726-12.839z"></path><linearGradient id="p" x1="10.999" x2="59.521" y1="-6.141" y2="40.033" gradientUnits="userSpaceOnUse"><stop offset=".209" stop-color="#fbb040"></stop><stop offset=".405" stop-color="#f18a3c"></stop><stop offset=".405" stop-color="#f18a3c"></stop><stop offset=".52" stop-color="#ef773c"></stop><stop offset=".639" stop-color="#ed6c3c"></stop><stop offset=".765" stop-color="#ed683c"></stop><stop offset=".905" stop-color="#e93e3a"></stop></linearGradient><path fill="url(#p)" d="M32 29a1 1 0 0 0 .997-.921l2.049-25.854c.043-.547-.144-1.093-.511-1.499S33.643.08 33.097.068L31.252.027h-.001a2.06 2.06 0 0 0-1.492.62 2.006 2.006 0 0 0-.547 1.518l1.79 25.904c.036.521.47.928.993.931H32zm-.794-26.973h.002l1.844.041-.984 12.419-.862-12.46z"></path><linearGradient id="q" x1="-5.01" x2="43.512" y1="10.682" y2="56.856" gradientUnits="userSpaceOnUse"><stop offset=".209" stop-color="#fbb040"></stop><stop offset=".405" stop-color="#f18a3c"></stop><stop offset=".405" stop-color="#f18a3c"></stop><stop offset=".52" stop-color="#ef773c"></stop><stop offset=".639" stop-color="#ed6c3c"></stop><stop offset=".765" stop-color="#ed683c"></stop><stop offset=".905" stop-color="#e93e3a"></stop></linearGradient><path fill="url(#q)" d="M35.712 63.599c.34.257.751.396 1.194.396.152 0 .309-.017.468-.051l2.823-.764c.521-.115.98-.438 1.264-.891a2.005 2.005 0 0 0 .241-1.564l-6.734-25.976a1 1 0 0 0-1.965.322l1.919 27.07c.041.578.329 1.109.79 1.458zm4.057-2.372c-.023.004-.045.01-.067.016L36.917 62 35.77 45.803l3.999 15.424z"></path><linearGradient id="r" x1="5.094" x2="53.616" y1=".064" y2="46.238" gradientUnits="userSpaceOnUse"><stop offset=".209" stop-color="#fbb040"></stop><stop offset=".405" stop-color="#f18a3c"></stop><stop offset=".405" stop-color="#f18a3c"></stop><stop offset=".52" stop-color="#ef773c"></stop><stop offset=".639" stop-color="#ed6c3c"></stop><stop offset=".765" stop-color="#ed683c"></stop><stop offset=".905" stop-color="#e93e3a"></stop></linearGradient><path fill="url(#r)" d="M30 31a1 1 0 0 0 .863-1.506L14.398 1.408a1.998 1.998 0 0 0-2.835-.653L7.418 3.52a2 2 0 0 0-.362 3.017l22.208 24.14A.998.998 0 0 0 30 31zM8.526 5.185l4.147-2.765L24.42 22.459 8.526 5.185z"></path><linearGradient id="s" x1="-7.201" x2="41.321" y1="12.984" y2="59.158" gradientUnits="userSpaceOnUse"><stop offset=".209" stop-color="#fbb040"></stop><stop offset=".405" stop-color="#f18a3c"></stop><stop offset=".405" stop-color="#f18a3c"></stop><stop offset=".52" stop-color="#ef773c"></stop><stop offset=".639" stop-color="#ed6c3c"></stop><stop offset=".765" stop-color="#ed683c"></stop><stop offset=".905" stop-color="#e93e3a"></stop></linearGradient><path fill="url(#s)" d="M1.999 36.841c.098 0 .196-.007.294-.021l25.854-3.83a1 1 0 0 0-.109-1.988l-2.634-.098a.98.98 0 0 0 .533-.552 1.001 1.001 0 0 0-.585-1.288l-16-6a1.001 1.001 0 0 0-.703 1.873l15.819 5.932-22.394-.83a1.915 1.915 0 0 0-1.462.559A1.983 1.983 0 0 0 0 32.038v2.803a2 2 0 0 0 1.999 2zM2 32.037l15.142.562L2 34.843v-2.806z"></path><linearGradient id="t" x1="-12.168" x2="36.354" y1="18.203" y2="64.377" gradientUnits="userSpaceOnUse"><stop offset=".209" stop-color="#fbb040"></stop><stop offset=".405" stop-color="#f18a3c"></stop><stop offset=".405" stop-color="#f18a3c"></stop><stop offset=".52" stop-color="#ef773c"></stop><stop offset=".639" stop-color="#ed6c3c"></stop><stop offset=".765" stop-color="#ed683c"></stop><stop offset=".905" stop-color="#e93e3a"></stop></linearGradient><path fill="url(#t)" d="M31.669 33.257a.997.997 0 0 0-1.349.01L4.174 57.477a1.996 1.996 0 0 0-.641 1.539c.021.583.294 1.127.695 1.444l3.307 3.055.053.046a1.983 1.983 0 0 0 1.495.423 1.99 1.99 0 0 0 1.353-.781l21.365-28.604a1.001 1.001 0 0 0-.132-1.342zm-22.83 28.74-3.307-3.053 18.119-16.776L8.839 61.997z"></path><linearGradient id="u" x1="8.004" x2="56.526" y1="-2.994" y2="43.18" gradientUnits="userSpaceOnUse"><stop offset=".209" stop-color="#fbb040"></stop><stop offset=".405" stop-color="#f18a3c"></stop><stop offset=".405" stop-color="#f18a3c"></stop><stop offset=".52" stop-color="#ef773c"></stop><stop offset=".639" stop-color="#ed6c3c"></stop><stop offset=".765" stop-color="#ed683c"></stop><stop offset=".905" stop-color="#e93e3a"></stop></linearGradient><path fill="url(#u)" d="M60.422 46.572c.254 0 .508-.049.749-.146a1.974 1.974 0 0 0 1.134-1.183l1.578-4.155.014-.039a2.007 2.007 0 0 0-.139-1.587 2.011 2.011 0 0 0-1.269-.984l-26.251-6.449a1 1 0 0 0-.699 1.858l23.96 12.458c.288.151.605.227.923.227zM62 40.415l-1.578 4.156L43.86 35.96 62 40.415z"></path><linearGradient id="v" x1="13.22" x2="61.742" y1="-8.476" y2="37.698" gradientUnits="userSpaceOnUse"><stop offset=".209" stop-color="#fbb040"></stop><stop offset=".405" stop-color="#f18a3c"></stop><stop offset=".405" stop-color="#f18a3c"></stop><stop offset=".52" stop-color="#ef773c"></stop><stop offset=".639" stop-color="#ed6c3c"></stop><stop offset=".765" stop-color="#ed683c"></stop><stop offset=".905" stop-color="#e93e3a"></stop></linearGradient><path fill="url(#v)" d="M63.952 22.695a1 1 0 0 0-1.257-.647l-25 8a1 1 0 0 0 .61 1.904l25-8a.998.998 0 0 0 .647-1.257z"></path><linearGradient id="w" x1="-1.64" x2="46.882" y1="7.141" y2="53.315" gradientUnits="userSpaceOnUse"><stop offset=".209" stop-color="#fbb040"></stop><stop offset=".405" stop-color="#f18a3c"></stop><stop offset=".405" stop-color="#f18a3c"></stop><stop offset=".52" stop-color="#ef773c"></stop><stop offset=".639" stop-color="#ed6c3c"></stop><stop offset=".765" stop-color="#ed683c"></stop><stop offset=".905" stop-color="#e93e3a"></stop></linearGradient><path fill="url(#w)" d="M45 51a1 1 0 1 0 0 2h1a1 1 0 1 0 0-2h-1z"></path><linearGradient id="x" x1="-15.4" x2="33.121" y1="21.601" y2="67.775" gradientUnits="userSpaceOnUse"><stop offset=".209" stop-color="#fbb040"></stop><stop offset=".405" stop-color="#f18a3c"></stop><stop offset=".405" stop-color="#f18a3c"></stop><stop offset=".52" stop-color="#ef773c"></stop><stop offset=".639" stop-color="#ed6c3c"></stop><stop offset=".765" stop-color="#ed683c"></stop><stop offset=".905" stop-color="#e93e3a"></stop></linearGradient><path fill="url(#x)" d="M10.301 39.842a.999.999 0 0 0-.938-.278l-1.972.447-1.706-1.084a1.001 1.001 0 0 0-1.533.753l-.182 2.012-1.558 1.288a.998.998 0 0 0 .242 1.689l1.857.797.743 1.879a.998.998 0 0 0 1.682.292l1.332-1.52 2.018-.126a.999.999 0 0 0 .797-1.51l-1.034-1.737.504-1.957a.999.999 0 0 0-.252-.945zm-2.572 4.305a1 1 0 0 0-.689.339l-.526.601-.294-.742a1.002 1.002 0 0 0-.535-.552l-.734-.315.615-.509a.994.994 0 0 0 .359-.68l.072-.796.675.429c.225.143.5.189.757.132l.779-.177-.2.773c-.066.258-.026.531.109.761l.409.687-.797.049z"></path><linearGradient id="y" x1="15.779" x2="64.301" y1="-11.164" y2="35.01" gradientUnits="userSpaceOnUse"><stop offset=".209" stop-color="#fbb040"></stop><stop offset=".405" stop-color="#f18a3c"></stop><stop offset=".405" stop-color="#f18a3c"></stop><stop offset=".52" stop-color="#ef773c"></stop><stop offset=".639" stop-color="#ed6c3c"></stop><stop offset=".765" stop-color="#ed683c"></stop><stop offset=".905" stop-color="#e93e3a"></stop></linearGradient><path fill="url(#y)" d="m63.049 30.745.504-1.957a1 1 0 0 0-1.19-1.224l-1.972.447-1.706-1.084a1 1 0 0 0-1.533.753l-.184 2.013-1.558 1.288a.998.998 0 0 0 .242 1.689l1.857.797.743 1.879a.998.998 0 0 0 1.682.292l1.332-1.52 2.018-.126a.999.999 0 0 0 .797-1.51l-1.032-1.737zm-2.32 1.402a1 1 0 0 0-.689.339l-.526.601-.294-.742a1.002 1.002 0 0 0-.535-.552l-.734-.315.615-.509a.994.994 0 0 0 .359-.68l.072-.796.675.429c.225.143.5.19.757.132l.779-.177-.199.773c-.066.258-.026.531.109.761l.409.687-.798.049z"></path></svg>