<?xml version="1.0" encoding="utf-8"?><svg xmlns="http://www.w3.org/2000/svg" xmlns:xlink="http://www.w3.org/1999/xlink"><symbol viewBox="0 0 30 23" id="basket" xmlns="http://www.w3.org/2000/svg"><path d="m29.999 0-.929 2.5H26.66l-4.342 15H5.767L0 3.75h21.015l-.705 2.5H3.759L7.43 15h13.035l4.29-15H30ZM10.624 18.75a1.876 1.876 0 1 0 .001 3.751 1.876 1.876 0 0 0-.001-3.751ZM19.249 10l-2.375 8.75a1.875 1.875 0 1 0 0 3.75 1.875 1.875 0 0 0 0-3.75L19.249 10Z"/></symbol><symbol viewBox="0 0 251 148" id="basket-empty" xmlns="http://www.w3.org/2000/svg"><path d="M111.537 84.728c15.504-16.65 44.845-32.714 57.578-38.664L62.538 27.371 3.754 58.522l107.783 26.206Z"/><path d="M154.009 72.546 167.25 46.93c-25.037 7.366-47.658 28.502-55.839 38.15l-7.341 27.557 13.269 3.184 56.77-35.967-20.1-7.308Z"/><path d="M99.168 115.131c.753-3.386 4.73-5.022 9.695-5.655l4.76-24.959c11.324-13.442 41.401-31.412 49.893-36.082 9.947-5.47 42.993-15.736 55.902 13.633 9.456-.708 30.231-9.322 24.613-30.071-4.123-15.225-17.352-19.645-28.091-21.4-2.53 0-3.592-4.206 0-5.839 5.839-2.653 26.663 7.062 31.847 22.818 4.323 13.138 5.308 30.247-26.008 40.86 8.917 28.866-18.753 52.532-31.316 52.532h-44.586c-.337-4.39 4.419-10.646 8.159-13.645l-4.951 3.032c-3.97 3.716-10.206 8.41-13.292 10.613h-18.312l-9.074-5.986-.622.149.094-.496-2.217-1.463c-.708 1.238-8.192 9.6-6.494 1.959Z"/><path d="M127.831 110.355c-8.847-1.592-26.964-2.866-28.663 4.776-1.698 7.641 5.786-.721 6.494-1.959l11.819 7.796h18.312c3.086-2.203 9.322-6.897 13.292-10.613m-21.254 0 15.393-23.347m-15.393 23.347-20.046 4.776 5.838-30.614c11.324-13.442 41.401-31.412 49.893-36.082 9.947-5.47 42.993-15.736 55.902 13.633m-68.233 46.165c3.397-3.82 6.723-7.606 7.962-9.02l-7.962 9.02Zm0 0c-.575.647-1.187 1.563-2.1 2.122m0 0 7.531-4.612m0 0c-3.538 1.238-11.163 9.707-10.739 15.225h44.586c12.563 0 40.233-23.666 31.316-52.532m-65.163 37.307c2.531-3.184 26.947 4.612 26.947 4.612m38.216-41.92a59.27 59.27 0 0 0-2.361-6.367m2.361 6.368c31.316-10.613 30.331-27.722 26.008-40.86-5.184-15.756-26.008-25.47-31.847-22.818-3.592 1.633-2.53 5.838 0 5.838 10.739 1.756 23.968 6.176 28.091 21.401 5.618 20.748-15.157 29.363-24.613 30.07m-52.84 6.369c-1.593 9.02-3.062 26.694 16.047 36.246"/><path d="m111.539 84.724 16.878 9.2L9.564 81.674 2.912 59.075 111.54 84.724Z"/><path d="m116.808 122.191 11.607-28.265L9.306 80.806l7.164 24.336 100.338 17.049ZM135.917 52.677c-14.508-3.892-31.316-10.612-38.216 0-4.789 7.364 13.092 13.089 16.985 13.797"/><path d="M103.286 113.701c3.716-7.959 11.93-8.489 20.953-4.776l11.147-9.551 4.246-6.898 4.777-7.43 12.362 15.756.908-.367-7.962 9.552c-3.971 3.716-13.214 10.367-16.301 12.571h-28.538c-1.592 0-3.523-4.72-1.592-8.857Z"/><path d="M147.063 81.863 162.455 94.6l-5.308 9.551-2.123-1.592-12.738-13.266 4.777-7.429Z"/><ellipse cx="1.592" cy="2.123" rx="1.592" ry="2.123" transform="rotate(25.633 -84.466 283.125) skewX(-.012)"/><ellipse cx="1.592" cy="2.123" rx="1.592" ry="2.123" transform="rotate(25.633 -42.396 321.937) skewX(-.012)"/></symbol><symbol viewBox="0 0 12 12" id="check-on" xmlns="http://www.w3.org/2000/svg"><path d="M1.079 4.999 5 9l5.837-7"/></symbol><symbol viewBox="0 0 46 46" id="close-btn" xmlns="http://www.w3.org/2000/svg"><circle cx="23" cy="23" r="22"/><path d="M33.186 12.792 12.391 32.786M12.791 12.392l19.994 20.795"/></symbol><symbol viewBox="0 0 12 12" id="delete" xmlns="http://www.w3.org/2000/svg"><circle cx="6" cy="6" r="6"/><path d="M8.657 3.023 3.232 8.24M3.336 2.922l5.216 5.425"/></symbol><symbol viewBox="0 0 198 159" id="double-heart" xmlns="http://www.w3.org/2000/svg"><path d="M35.558 68.025C34.106 47.618 46.935 28.244 66.538 29.1c15.184.662 27.788 12.863 37.635 24.318.022-4.603 7.364-15.147 30.854-13.045 19.893 1.78 33.391 24.105 24.087 47.99-10.904 27.995-50.267 46.157-72.027 55.447-31.009-19.447-49.547-47.915-51.53-75.785Z"/><path d="M87.087 143.81c-31.009-19.448-49.547-47.915-51.53-75.785C34.108 47.618 46.936 28.244 66.54 29.1c15.183.662 27.787 12.863 37.634 24.318M87.087 143.81c21.76-9.29 61.123-27.452 72.027-55.447 9.304-23.885-4.194-46.21-24.087-47.99-23.49-2.102-30.832 8.442-30.854 13.045M87.087 143.81l9.629-18.275c-1.972-1.428-5.845-4.714-5.562-6.432.282-1.719 9.294-7.297 13.764-9.871-2.988-1.963-9.252-6.819-10.405-10.54-1.153-3.72 8.932-9.563 14.118-12.019l-14.512-5.699 18.225-16.859c-2.018-3.037-4.825-6.805-8.171-10.697"/><path d="M159.116 88.363c-10.904 27.996-50.267 46.157-72.028 55.448l9.63-18.275c-1.972-1.428-5.846-4.714-5.563-6.433.283-1.718 9.294-7.296 13.765-9.871-2.988-1.962-9.252-6.818-10.405-10.539-1.153-3.72 8.931-9.563 14.118-12.02l-14.512-5.698 18.225-16.859c-2.019-3.037-4.826-6.805-8.172-10.697.022-4.603 7.364-15.147 30.854-13.045 19.893 1.78 33.391 24.105 24.088 47.99Z"/><path d="M35.56 68.025c1.982 27.87 20.52 56.338 51.528 75.786m0 0c21.761-9.291 61.124-27.452 72.028-55.448 9.303-23.884-4.195-46.209-24.088-47.99-23.49-2.101-30.832 8.443-30.854 13.046 3.346 3.892 6.153 7.66 8.172 10.697L94.121 80.975l14.512 5.699c-5.187 2.456-15.271 8.298-14.118 12.019 1.153 3.721 7.417 8.577 10.405 10.539-4.471 2.575-13.482 8.153-13.765 9.871-.283 1.719 3.59 5.005 5.563 6.433l-9.63 18.275ZM47.54 55.337c-.23 8.6 1.848 9.432 3.14 8.192 4.773 4.056 2.208-6.411 4.49-13.665 2.282-7.255 17.543-9.958 11.531-10.948-7.09-1.167-18.805 3.11-19.16 16.42ZM50.62 75.111c-4.527.171-5.396-7.546-.95-7.615 4.444-.068 4.424 7.485.95 7.615ZM52.925 29.2C44.79 24.565 31.47 13.578 43.276 6.728c11.806-6.85 11.352 12.128 9.65 22.474ZM60.603 9.58c1.58 3.923 4.087 11.665 1.488 11.237-3.25-.535-7.986-12.308-1.488-11.238ZM25.646 19.215c-1.889 2.231 11.973 16.48 13.402 13.198 1.786-4.103-12.874-16.409-13.402-13.198ZM14.09 62.381c-3.606.286-3.14-3.448.705-4.28 3.846-.834 11.682-2.035 12.267-.18.73 2.319-8.463 4.103-12.971 4.46ZM24.818 37.765c3.484-.892 10.094-1.856 8.664 1.427-1.788 4.102-7.026 2.14-8.664-1.427ZM17.947 79.504c-.428-1.902.266-5.672 6.473-5.53 7.757.178-4.658 8.028-6.473 5.53Z"/><path d="M52.925 29.2C44.79 24.565 31.47 13.578 43.276 6.728c11.806-6.85 11.352 12.128 9.65 22.474ZM60.603 9.58c1.58 3.923 4.087 11.665 1.488 11.237-3.25-.535-7.986-12.308-1.488-11.238ZM25.646 19.215c-1.889 2.231 11.973 16.48 13.402 13.198 1.786-4.103-12.874-16.409-13.402-13.198ZM14.09 62.381c-3.606.286-3.14-3.448.705-4.28 3.846-.834 11.682-2.035 12.267-.18.73 2.319-8.463 4.103-12.971 4.46ZM24.818 37.765c3.484-.892 10.094-1.856 8.664 1.427-1.788 4.102-7.026 2.14-8.664-1.427ZM17.947 79.504c-.428-1.902.266-5.672 6.473-5.53 7.757.178-4.658 8.028-6.473 5.53ZM135.968 33.032c-1.61-1.358-3.938-4.147-.37-4.435 3.567-.287 1.733 2.837.37 4.435ZM143.464 34.267c-.837-1.596-1.869-4.682.701-4.26l-.701 4.26ZM149.19 39.584c-1.565-6.09-2.801-17.74 4.771-15.618 9.464 2.651-3.89 20.137-4.771 15.618ZM159.55 43.476c1.415-4.142 5.246-11.822 9.25-9.413 5.005 3.01-8.53 11.718-9.25 9.413ZM166.171 50.033c2.428-3.61 8.07-10.263 11.217-7.995 3.934 2.835-8.354 10.654-11.217 7.995ZM170.67 62.803c6.121-1.544 18.761-3.036 20.35 3.35 1.986 7.981-19.98 1.085-20.35-3.35ZM172.306 72.914c1.791 2.482 5.694 6.842 6.971 4.428 1.597-3.018-4.479-6.205-6.971-4.428Z"/><path d="M135.968 33.032c-1.61-1.358-3.938-4.147-.37-4.435 3.567-.287 1.733 2.837.37 4.435ZM143.464 34.267c-.837-1.596-1.869-4.682.701-4.26l-.701 4.26ZM149.19 39.584c-1.565-6.09-2.801-17.74 4.771-15.618 9.464 2.651-3.89 20.137-4.771 15.618ZM159.55 43.476c1.415-4.142 5.246-11.822 9.25-9.413 5.005 3.01-8.53 11.718-9.25 9.413ZM166.171 50.033c2.428-3.61 8.07-10.263 11.217-7.995 3.934 2.835-8.354 10.654-11.217 7.995ZM170.67 62.803c6.121-1.544 18.761-3.036 20.35 3.35 1.986 7.981-19.98 1.085-20.35-3.35ZM172.306 72.914c1.791 2.482 5.694 6.842 6.971 4.428 1.597-3.018-4.479-6.205-6.971-4.428Z"/></symbol><symbol viewBox="0 0 30 30" id="facebook" xmlns="http://www.w3.org/2000/svg"><g clip-path="url(#ga)"><path d="M17.419 29.805ZM17.719 29.753c-.06.012-.12.022-.18.032.06-.01.12-.02.18-.032ZM16.707 29.903ZM16.995 29.867ZM18.127 29.672ZM19.14 29.42c-.042.013-.085.024-.127.036l.127-.035ZM18.834 29.505l-.14.036.14-.037ZM18.433 29.605l-.148.033.148-.033ZM16.262 29.947ZM30 15c0-8.283-6.717-15-15-15C6.717 0 0 6.717 0 15c0 8.283 6.717 15 15 15l.264-.003V18.32H12.04v-3.756h3.223V11.8c0-3.205 1.956-4.95 4.816-4.95 1.369 0 2.546.103 2.889.148v3.35h-1.972c-1.555 0-1.857.74-1.857 1.824v2.392h3.72l-.485 3.756H19.14v11.1C25.41 27.623 30 21.848 30 15ZM15.991 29.967ZM15.513 29.99Z"/></g><defs><clipPath id="ga"><path d="M0 0h30v30H0z"/></clipPath></defs></symbol><symbol viewBox="0 0 24 24" id="heart" xmlns="http://www.w3.org/2000/svg"><path d="M12 4.248C8.852-1.154 0 .423 0 7.192 0 11.853 5.571 16.619 12 23c6.43-6.381 12-11.147 12-15.808C24 .4 15.125-1.114 12 4.248z"/></symbol><symbol viewBox="0 0 81 98" id="heart-decor" xmlns="http://www.w3.org/2000/svg"><g clip-path="url(#ha)"><path d="M79.936 57.735c-1.726-.42-8.547-1.347-10.558 0l-.503-7.542c1.078.36 2.514 1.365 2.514.503 0-1.077 5.932.304 5.932.304 0 1.928 2.328 3.072 1.61 3.97 1.077-.18 3.44 3.358 1.005 2.765ZM73.55 36.455c.432-4.31-6.864-5.726-10.456-5.367l.759-4.332c.898-.538 3.155-.732 7.034.561 4.85 1.616 7.542 4.827 6.974 9.138-.566 4.294-4.13 8.26-6.465 9.698l-1.617-3.233c1.078-.36 3.34-2.155 3.772-6.465Z"/><path d="M19.855 33.758c10.344-3.88 16.088-.41 21.369 4.849 2.01 1.78.97.97 4.849-1.616 3.879-2.587 8.44-3.233 10.236-3.233 15.086 0 16.338 13.166 15.625 18.319-.59 4.269-12.93 33.404-30.71 32.326-17.78-1.077-22.09-16.702-25.323-21.012-3.233-4.31-8.977-24.784 3.954-29.633ZM11.307 63.39c-1.206 0-1.843.42-2.01.629 0 .167.2.452 1.005.25 1.005-.25 1.005-.5 1.005-.878Z"/><path d="M19.855 33.758c10.344-3.88 16.088-.41 21.369 4.849 2.01 1.78.97.97 4.849-1.616 3.879-2.587 8.44-3.233 10.236-3.233 15.086 0 16.338 13.166 15.625 18.319-.59 4.269-12.93 33.404-30.71 32.326-17.78-1.077-22.09-16.702-25.323-21.012-3.233-4.31-8.977-24.784 3.954-29.633ZM11.307 63.39c-1.206 0-1.843.42-2.01.629 0 .167.2.452 1.005.25 1.005-.25 1.005-.5 1.005-.878Z"/><path d="M60.327 28.07c-5.603 6.034-5.926 12.497-5.029 13.575l1.258 2.514 2.514-3.52c-1.005-.503 1.652-6.105 3.268-7.542 6.896-7.327 1.868-13.323-1.005-14.58 1.76 2.01 4.597 3.518-1.006 9.553Z"/><path d="M52.282 18.015c2.626 1.969 7.438 5.96 9.413 8.295 1.9-1.76 2.586-5.913 0-7.637-3.233-2.156-5.388-5.926-4.849-8.62.539-2.694 1.47-3.602 4.31-1.617 2.15 1.503 0 4.13-1.616 5.926-.36.54-.97 1.294 1.616 0 2.586-1.293 4.49-.539 4.85 0 .538-6.465-4.337-8.216-10.237-7.004-5.247 1.078-5.498 9.148-3.487 10.657ZM4.586 51.538c3.053-.54 8.081-.54 3.771 3.771-5.388 5.388-9.16 10.776-6.465 14.009 2.694 3.233 7.004 3.771 9.16 0 2.155-3.772-2.155-8.62-4.31-7.004-2.156 1.616-2.696 7.543 1.615 8.081 4.311.54 8.515 1.56 15.52-.595 7.004-2.155 7.829 3.663 7.29 5.28-.539 1.616-9.879 6.091-10.417 10.401-.54 4.31 4.849 7.543 8.081 3.772 3.233-3.772-2.155-5.927-3.232-3.772-.862 1.724.718 1.796 1.616 1.617M55.758 45.525c-3.848-.49-3.474-4.383-1.077-5.388.368 3.016 3.412 1.796 4.31 0 2.155 1.077 1.84 6.033-3.233 5.388Z"/><circle cx="10.3" cy="32.345" r="1.757"/><circle cx="47.149" cy="29.952" r="1.578"/><circle cx="13.171" cy="81.171" r="1.578"/><circle cx="66.906" cy="75.064" r="1.578"/><path d="m11.086 33.256 7.543 8.082M25.06 59.083s-15.01 6.951-17.24 6.465c-2.232-.486-.283-1.758 1.077-2.155 2.159-.63 11.135-3.053 16.163-4.31ZM14.285 80.093l13.47-10.776M46.612 31.064l-4.132 8.318M56.633 71.328l9.16 3.233"/><ellipse cx="9.933" cy="64.034" rx="1.697" ry=".503" transform="rotate(-17.887 9.933 64.034)"/><path d="M27.213 87.003c-.898.18-2.478.107-1.616-1.617 1.077-2.155 6.465 0 3.232 3.772-3.232 3.771-8.62.539-8.081-3.772.539-4.31 9.878-8.785 10.417-10.401.539-1.617-.286-7.435-7.29-5.28-7.004 2.155-11.209 1.134-15.52.596-4.31-.54-3.771-6.466-1.615-8.082 1.094-.82 3.56.543 4.062 1.8"/></g><defs><clipPath id="ha"><path d="M0 0h81v98H0z"/></clipPath></defs></symbol><symbol viewBox="0 0 30 30" id="instagram" xmlns="http://www.w3.org/2000/svg"><g clip-path="url(#ja)"><path d="M15.005 7.297a7.697 7.697 0 0 0-7.698 7.698 7.697 7.697 0 0 0 7.698 7.697 7.697 7.697 0 0 0 7.697-7.697 7.697 7.697 0 0 0-7.697-7.698Zm0 12.694a4.995 4.995 0 0 1-4.997-4.996 4.995 4.995 0 0 1 4.997-4.996A4.995 4.995 0 0 1 20 14.995a4.994 4.994 0 0 1-4.996 4.996Z"/><path d="M21.185.095c-2.76-.128-9.596-.122-12.359 0C6.4.21 4.257.795 2.531 2.522-.354 5.407.015 9.294.015 14.996c0 5.835-.325 9.632 2.516 12.473 2.896 2.895 6.84 2.516 12.474 2.516 5.78 0 7.775.004 9.818-.787 2.78-1.079 4.877-3.563 5.082-8.024.13-2.761.122-9.596 0-12.359-.248-5.266-3.074-8.46-8.72-8.72Zm4.369 25.466c-1.892 1.89-4.515 1.722-10.585 1.722-6.25 0-8.757.092-10.585-1.741-2.107-2.097-1.725-5.463-1.725-10.567 0-6.906-.71-11.88 6.222-12.235 1.592-.056 2.061-.075 6.07-.075l.056.038c6.662 0 11.888-.698 12.202 6.232.07 1.582.087 2.057.087 6.06-.001 6.177.116 8.698-1.742 10.566Z"/><path d="M23.008 8.792a1.799 1.799 0 1 0 0-3.597 1.799 1.799 0 0 0 0 3.597Z"/></g><defs><clipPath id="ja"><path d="M0 0h30v30H0z"/></clipPath></defs></symbol><symbol viewBox="0 0 60 16" id="line" xmlns="http://www.w3.org/2000/svg"><path d="M.594 15.766 59.405.234"/></symbol><symbol viewBox="0 0 6 9" id="link-arrow" xmlns="http://www.w3.org/2000/svg"><path d="M.229 7.888a.591.591 0 0 0-.025.912.809.809 0 0 0 1.039.022L5.79 4.96a.61.61 0 0 0-.025-.942L1.243.178A.809.809 0 0 0 .203.2a.591.591 0 0 0 .024.912l3.486 3.01a.5.5 0 0 1 0 .757L.229 7.888Z"/></symbol><symbol viewBox="0 0 18 20" id="location" xmlns="http://www.w3.org/2000/svg"><path fill-rule="evenodd" clip-rule="evenodd" d="M11.5 8.5a2.5 2.5 0 1 0-5 0 2.5 2.5 0 0 0 5 0Z"/><path fill-rule="evenodd" clip-rule="evenodd" d="M9 19C7.8 19 1.5 13.898 1.5 8.563 1.5 4.387 4.857 1 9 1c4.142 0 7.5 3.387 7.5 7.563C16.5 13.898 10.198 19 9 19Z"/></symbol><symbol viewBox="0 0 22 20" id="message" xmlns="http://www.w3.org/2000/svg"><path d="m16.903 6.851-4.444 3.613c-.84.666-2.02.666-2.86 0L5.12 6.851"/><path fill-rule="evenodd" clip-rule="evenodd" d="M15.909 19C18.95 19.008 21 16.51 21 13.438V6.57C21 3.499 18.95 1 15.909 1H6.09C3.05 1 1 3.499 1 6.57v6.868C1 16.51 3.05 19.008 6.091 19h9.818Z"/></symbol><symbol viewBox="0 0 16 29" id="next-black-arrow" xmlns="http://www.w3.org/2000/svg"><path d="M13.214 14.194.24 27.014a.794.794 0 0 0 0 1.136c.32.315.831.315 1.15 0l13.553-13.391a.794.794 0 0 0 0-1.136L1.39.238A.823.823 0 0 0 .817 0a.798.798 0 0 0-.572.238.794.794 0 0 0 0 1.136l12.97 12.82Z"/></symbol><symbol viewBox="0 0 22 22" id="phone" xmlns="http://www.w3.org/2000/svg"><path d="M13.353 1.5a7.97 7.97 0 0 1 7.04 7.032M13.353 5.043a4.426 4.426 0 0 1 3.5 3.5"/><path fill-rule="evenodd" clip-rule="evenodd" d="M10.031 11.472c3.99 3.988 4.894-.625 7.434 1.913 2.449 2.448 3.857 2.938.754 6.04-.389.312-2.858 4.07-11.535-4.605-8.677-8.676-4.922-11.148-4.61-11.536 3.11-3.11 3.593-1.695 6.041.753 2.54 2.54-2.072 3.447 1.916 7.435Z"/></symbol><symbol viewBox="0 0 16 29" id="prev-arrow" xmlns="http://www.w3.org/2000/svg"><path d="m1.967 14.192 12.975-12.82a.794.794 0 0 0 0-1.136.817.817 0 0 0-1.15 0L.24 13.627a.794.794 0 0 0 0 1.136l13.553 13.385a.823.823 0 0 0 .572.238.798.798 0 0 0 .572-.238.794.794 0 0 0 0-1.136L1.967 14.192Z"/></symbol><symbol viewBox="0 0 25 24" id="search" xmlns="http://www.w3.org/2000/svg"><path d="m24.089 22.206-5.686-5.348c1.854-1.802 3.028-4.244 3.028-6.976C21.431 4.418 16.734 0 10.924 0S.417 4.418.417 9.882c0 5.464 4.697 9.882 10.507 9.882 2.225 0 4.327-.697 6.057-1.802l5.81 5.464c.185.175.433.233.68.233.247 0 .494-.058.68-.233a.86.86 0 0 0-.062-1.22ZM2.27 9.882c0-4.476 3.894-8.138 8.653-8.138 4.76 0 8.653 3.662 8.653 8.138s-3.894 8.138-8.653 8.138-8.653-3.662-8.653-8.138Z"/></symbol><symbol viewBox="0 0 24 24" id="user" xmlns="http://www.w3.org/2000/svg"><path d="M20.823 18.096c-3.44-.794-6.64-1.49-5.09-4.418C20.453 4.766 16.983 0 12 0 6.918 0 3.536 4.949 8.268 13.678c1.597 2.945-1.725 3.641-5.09 4.418C.105 18.806-.01 20.332 0 23l.004 1h23.99l.005-.969c.012-2.688-.092-4.222-3.176-4.935Z"/></symbol><symbol viewBox="0 0 30 30" id="vk" xmlns="http://www.w3.org/2000/svg"><path d="M24.894 16.285c-.485-.613-.346-.885 0-1.433.006-.006 4.01-5.538 4.422-7.415h.003c.205-.684 0-1.187-.991-1.187h-3.28c-.835 0-1.22.431-1.427.914 0 0-1.67 3.997-4.032 6.588-.763.75-1.115.99-1.531.99-.206 0-.524-.24-.524-.925v-6.38c0-.82-.234-1.187-.925-1.187H11.45c-.524 0-.835.383-.835.739 0 .777 1.181.956 1.304 3.144v4.746c0 1.04-.189 1.231-.607 1.231-1.116 0-3.822-4.014-5.426-8.607-.323-.892-.64-1.252-1.48-1.252H1.124C.189 6.251 0 6.682 0 7.165c0 .853 1.115 5.091 5.185 10.691 2.713 3.823 6.532 5.894 10.008 5.894 2.088 0 2.343-.46 2.343-1.251 0-3.653-.189-3.998.858-3.998.485 0 1.32.24 3.27 2.084 2.228 2.186 2.595 3.165 3.842 3.165h3.28c.935 0 1.409-.46 1.136-1.367-.623-1.91-4.838-5.835-5.028-6.098Z"/></symbol><symbol viewBox="0 0 30 30" id="youtube" xmlns="http://www.w3.org/2000/svg"><g clip-path="url(#ua)"><path d="m13.132 17.81 4.88-2.81-4.88-2.81v5.62Z"/><path d="M15 0C6.717 0 0 6.717 0 15c0 8.283 6.717 15 15 15 8.283 0 15-6.717 15-15 0-8.283-6.717-15-15-15Zm9.373 15.015s0 3.042-.386 4.51a2.349 2.349 0 0 1-1.652 1.651c-1.467.387-7.335.387-7.335.387s-5.852 0-7.335-.402a2.349 2.349 0 0 1-1.652-1.652C5.627 18.057 5.627 15 5.627 15s0-3.042.386-4.509a2.396 2.396 0 0 1 1.652-1.667C9.132 8.438 15 8.438 15 8.438s5.868 0 7.334.401c.803.216 1.436.85 1.653 1.652.401 1.467.386 4.524.386 4.524Z"/></g><defs><clipPath id="ua"><path d="M0 0h30v30H0z"/></clipPath></defs></symbol></svg>