<svg width="81" height="98" viewBox="0 0 81 98" fill="none" xmlns="http://www.w3.org/2000/svg">
<g clip-path="url(#clip0_6_15201)">
<path d="M79.9363 57.7351C78.2096 57.3145 71.3889 56.3877 69.3778 57.7351L68.875 50.1934C69.9526 50.5525 71.3889 51.5582 71.3889 50.6961C71.3889 49.6186 77.3211 51.0002 77.3211 51.0002C77.3211 52.9278 79.6491 54.0719 78.9307 54.9698C80.0082 54.7902 82.3715 58.3283 79.9363 57.7351Z" fill="#F40000" stroke="#1F1F1F"/>
<path d="M73.5508 36.4546C73.9818 32.1443 66.6859 30.7291 63.094 31.0883L63.8527 26.7565C64.7507 26.2177 67.0079 26.024 70.8871 27.3171C75.7362 28.9334 78.4289 32.1443 77.861 36.4546C77.2952 40.7492 73.7304 44.7158 71.3957 46.1525L69.7793 42.9198C70.8569 42.5607 73.1198 40.7648 73.5508 36.4546Z" fill="#F40000" stroke="#1F1F1F"/>
<path d="M19.8549 33.758C30.1994 29.8788 35.9433 33.3482 41.2237 38.6069C43.2336 40.3872 42.1935 39.5768 46.0727 36.9907C49.9519 34.4045 54.5136 33.7579 56.3095 33.7579C71.3954 33.7579 72.6472 46.9239 71.9342 52.0765C71.3433 56.346 59.0034 85.4808 41.2237 84.4033C23.444 83.3257 19.1337 67.7011 15.9011 63.3909C12.6684 59.0806 6.92415 38.607 19.8549 33.758Z" fill="#FDA3C4"/>
<path d="M11.3075 63.3909C10.1008 63.3909 9.46398 63.8093 9.29639 64.0185C9.29639 64.1861 9.4975 64.4711 10.302 64.2699C11.3075 64.0185 11.3075 63.7687 11.3075 63.3909Z" fill="#FDA3C4"/>
<path d="M19.8549 33.758C30.1994 29.8788 35.9433 33.3482 41.2237 38.6069C43.2336 40.3872 42.1935 39.5768 46.0727 36.9907C49.9519 34.4045 54.5136 33.7579 56.3095 33.7579C71.3954 33.7579 72.6472 46.9239 71.9342 52.0765C71.3433 56.346 59.0034 85.4808 41.2237 84.4033C23.444 83.3257 19.1337 67.7011 15.9011 63.3909C12.6684 59.0806 6.92415 38.607 19.8549 33.758Z" stroke="#1F1F1F"/>
<path d="M11.3075 63.3909C10.1008 63.3909 9.46398 63.8093 9.29639 64.0185C9.29639 64.1861 9.4975 64.4711 10.302 64.2699C11.3075 64.0185 11.3075 63.7687 11.3075 63.3909Z" stroke="#1F1F1F"/>
<path d="M60.3268 28.0695C54.7235 34.1038 54.4005 40.5671 55.2985 41.6447L56.5562 44.1586L59.0701 40.6391C58.0646 40.1363 60.722 34.5341 62.3381 33.0973C69.2345 25.7699 64.206 19.7738 61.3325 18.5166C63.0923 20.5277 65.9301 22.0352 60.3268 28.0695Z" fill="#F40000" stroke="#1F1F1F"/>
<path d="M52.2817 18.0145C54.9078 19.984 59.7195 23.9757 61.6951 26.3104C63.5944 24.5507 64.2812 20.3972 61.6951 18.6727C58.4624 16.517 56.3073 12.7466 56.8461 10.0527C57.3848 7.3588 58.3157 6.45057 61.1563 8.43636C63.3051 9.93856 61.1563 12.5667 59.54 14.3624C59.1808 14.9014 58.5702 15.6559 61.1563 14.3624C63.7424 13.0689 65.6461 13.8235 66.0053 14.3624C66.5441 7.89707 61.6689 6.14572 55.7685 7.35829C50.5222 8.43644 50.2705 16.5063 52.2817 18.0145Z" fill="#1F1F1F" stroke="#1F1F1F"/>
<path d="M4.58571 51.5377C7.6388 50.9989 12.6674 50.9989 8.35717 55.3091C2.96937 60.6969 -0.802085 66.0852 1.89181 69.3179C4.58571 72.5506 8.89649 73.0893 11.0516 69.3179C13.2067 65.5464 8.89703 60.6974 6.74137 62.3138C4.58571 63.9301 4.04639 69.8567 8.35717 70.3954C12.668 70.9342 16.8725 71.9554 23.8767 69.8002C30.8808 67.6451 31.7058 73.4631 31.1671 75.0795C30.6283 76.6958 21.2884 81.171 20.7496 85.4813C20.2109 89.7915 25.5987 93.0242 28.8313 89.2527C32.064 85.4813 26.6762 83.3262 25.5987 85.4813C24.7366 87.2054 26.317 87.2772 27.215 87.0976" stroke="#F40000"/>
<path d="M55.7584 45.5245C51.9102 45.0348 52.2837 41.1423 54.6808 40.1367C55.049 43.1534 58.093 41.9327 58.9909 40.1367C61.146 41.2143 60.8312 46.1701 55.7584 45.5245Z" fill="#1F1F1F"/>
<circle cx="10.2999" cy="32.3449" r="1.75696" fill="#1F1F1F" stroke="#1F1F1F"/>
<circle cx="47.1488" cy="29.9516" r="1.57756" fill="white" stroke="#1F1F1F"/>
<circle cx="13.1713" cy="81.1713" r="1.57756" fill="#FDA3C4" stroke="#1F1F1F"/>
<circle cx="66.9057" cy="75.0639" r="1.57756" fill="#FDA3C4" stroke="#1F1F1F"/>
<path d="M11.0859 33.2559L18.6289 41.3376" stroke="#1F1F1F"/>
<path d="M25.0603 59.083C25.0603 59.083 10.0509 66.0345 7.8194 65.5484C5.58794 65.0622 7.53726 63.7899 8.89696 63.3932C11.056 62.7634 20.0317 60.3402 25.0603 59.083Z" fill="white" stroke="#1F1F1F"/>
<path d="M14.2852 80.093L27.7546 69.3174" stroke="#1F1F1F"/>
<path d="M46.612 31.0635L42.4805 39.3815" stroke="#1F1F1F"/>
<path d="M56.6328 71.3281L65.7921 74.5608" stroke="#1F1F1F"/>
<ellipse cx="9.93287" cy="64.0336" rx="1.69663" ry="0.502784" transform="rotate(-17.8865 9.93287 64.0336)" fill="#1F1F1F"/>
<path d="M27.2132 87.0027C26.3152 87.1823 24.7348 87.1104 25.5968 85.3863C26.6744 83.2312 32.0622 85.3863 28.8295 89.1578C25.5968 92.9292 20.209 89.6966 20.7478 85.3863C21.2866 81.0761 30.6264 76.6009 31.1652 74.9845C31.704 73.3682 30.879 67.5502 23.8748 69.7053C16.8707 71.8604 12.6661 70.8393 8.35532 70.3005C4.04455 69.7617 4.58387 63.8351 6.73952 62.2188C7.83353 61.3985 10.2993 62.7622 10.8021 64.0191" stroke="#F40000"/>
</g>
<defs>
<clipPath id="clip0_6_15201">
<rect width="81" height="98" fill="white"/>
</clipPath>
</defs>
</svg>
