<svg width="180" height="48" viewBox="0 0 180 48" fill="none" xmlns="http://www.w3.org/2000/svg">
<rect width="180" height="48" fill="white"/>
<path d="M179.464 13.4131C170.304 14.6579 169.316 15.666 168.051 24.8262C166.806 15.666 165.798 14.6782 156.638 13.4131C165.798 12.1683 166.786 11.1603 168.051 2C169.296 11.1603 170.304 12.1683 179.464 13.4131Z" fill="#C8A06C"/>
<path d="M18.7535 14.3398H30.5996V33.4113H21.4123V24.5487L17.1839 33.4113H13.4427L9.12643 24.542L9.18055 33.4113H0V14.3398H11.8461L15.3235 21.687L18.7535 14.3398Z" fill="#343430"/>
<path d="M79.6551 33.411H69.4462L67.7481 29.7509L65.9824 33.411H55.7803L60.1507 26.4562L55.8344 19.5488H66.0636L67.7346 23.263L69.3853 19.5759H79.5942L75.305 26.4292L79.6551 33.411Z" fill="#343430"/>
<path d="M161.834 26.944V33.4116H152.477V27.5731C152.477 26.396 152.058 25.9765 151.036 25.9765C150.832 25.9425 150.622 25.9558 150.424 26.0155C150.225 26.0752 150.043 26.1797 149.892 26.3209C149.74 26.4621 149.623 26.6362 149.549 26.8299C149.475 27.0235 149.447 27.2315 149.467 27.4378V33.4116H140.394V27.6273C140.394 26.396 139.948 25.9765 138.953 25.9765C138.751 25.9471 138.544 25.9638 138.35 26.0256C138.155 26.0874 137.976 26.1926 137.828 26.3332C137.679 26.4738 137.565 26.6463 137.492 26.8376C137.42 27.029 137.392 27.2342 137.411 27.4378V33.4116H128.021V19.5698H132.31L135.293 23.9402C136.261 20.6725 138.676 19.0488 142.248 19.0488C145.631 19.0488 147.87 20.3275 148.892 23.0268C149.393 21.8129 150.258 20.784 151.367 20.0814C152.477 19.3788 153.777 19.037 155.089 19.1029C159.324 19.1029 161.834 21.5858 161.834 26.944Z" fill="#343430"/>
<path d="M43.8595 19.0488C35.4908 19.0488 32.744 21.87 32.2231 24.8264H41.7555L41.8028 24.7385C42.087 24.2649 42.4794 23.974 43.7512 23.974C45.0231 23.974 45.5982 24.3123 45.7267 25.1376V25.3203L42.4252 25.53C33.9347 26.0036 31.9863 27.5596 31.9863 30.1575C31.9863 32.3021 33.6303 33.9528 38.6028 33.9528C43.44 33.9528 46.2409 32.2006 47.2354 29.7651L50.8684 33.4116H55.1576V27.0522C55.1576 21.7414 52.4379 19.0488 43.8595 19.0488ZM45.835 27.3905C45.835 28.2497 44.8608 29.1833 42.7094 29.1833C41.6405 29.1833 41.4172 28.7774 41.4172 28.4391C41.4172 27.8235 42.1479 27.5123 43.9542 27.3566L45.835 27.2146V27.3905Z" fill="#343430"/>
<path d="M114.631 28.7498C113.427 28.7498 112.778 28.3574 112.541 27.3358V27.2073H126.545C126.607 26.7589 126.636 26.3067 126.633 25.8542C126.633 22.1671 123.521 19.0889 115.132 19.0889C106.499 19.0889 103.259 22.3295 103.259 26.3075V26.781C103.259 30.7591 106.499 33.9996 115.132 33.9996C123.189 33.9996 125.909 31.2935 126.457 28.2221H116.641C116.329 28.4656 116.045 28.7498 114.631 28.7498ZM112.602 25.1709C112.893 24.3049 113.569 23.9396 114.875 23.9396C116.289 23.9396 116.904 24.3049 117.101 25.1709V25.3265H112.541L112.602 25.1709Z" fill="#343430"/>
<path d="M89.1057 28.5135C89.2342 28.9059 89.5996 29.2712 91.1691 29.2712C92.7387 29.2712 93.0566 28.7977 93.0566 28.5135C93.0566 28.2294 92.8199 27.7558 90.1002 27.6273C81.1023 27.3634 79.4854 26.0848 79.4854 23.7304C79.4854 21.3761 81.7856 19.0488 90.655 19.0488C99.5243 19.0488 101.98 21.5858 102.264 24.4611H92.6101C92.5019 24.0687 92.1095 23.7304 90.7023 23.7304C89.2951 23.7304 88.923 24.1499 88.923 24.4611C88.923 24.7723 89.1733 25.2188 91.893 25.3271C100.891 25.5638 102.603 26.9237 102.603 29.2983C102.603 31.6729 100.248 33.9528 91.23 33.9528C81.9953 33.9528 79.5936 31.497 79.3027 28.5406L89.1057 28.5135Z" fill="#343430"/>
</svg>
