<svg width="180" height="32" viewBox="0 0 180 32" fill="none" xmlns="http://www.w3.org/2000/svg">
<path d="M179.464 11.4131C170.304 12.6579 169.316 13.666 168.051 22.8262C166.806 13.666 165.798 12.6782 156.638 11.4131C165.798 10.1683 166.786 9.16025 168.051 0C169.296 9.16025 170.304 10.1683 179.464 11.4131Z" fill="#C8A06C"/>
<path d="M18.7535 12.3398H30.5996V31.4113H21.4123V22.5487L17.1839 31.4113H13.4427L9.12643 22.542L9.18055 31.4113H0V12.3398H11.8461L15.3235 19.687L18.7535 12.3398Z" fill="white"/>
<path d="M79.6551 31.4115H69.4462L67.7481 27.7514L65.9824 31.4115H55.7803L60.1507 24.4567L55.8344 17.5493H66.0636L67.7346 21.2635L69.3853 17.5764H79.5942L75.305 24.4297L79.6551 31.4115Z" fill="white"/>
<path d="M161.834 24.944V31.4116H152.477V25.5731C152.477 24.396 152.058 23.9765 151.036 23.9765C150.832 23.9425 150.622 23.9558 150.424 24.0155C150.225 24.0752 150.043 24.1797 149.892 24.3209C149.74 24.4621 149.623 24.6362 149.549 24.8299C149.475 25.0235 149.447 25.2315 149.467 25.4378V31.4116H140.394V25.6273C140.394 24.396 139.948 23.9765 138.953 23.9765C138.751 23.9471 138.544 23.9638 138.35 24.0256C138.155 24.0874 137.976 24.1926 137.828 24.3332C137.679 24.4738 137.565 24.6463 137.492 24.8376C137.42 25.029 137.392 25.2342 137.411 25.4378V31.4116H128.021V17.5698H132.31L135.293 21.9402C136.261 18.6725 138.676 17.0488 142.248 17.0488C145.631 17.0488 147.87 18.3275 148.892 21.0268C149.393 19.8129 150.258 18.784 151.367 18.0814C152.477 17.3788 153.777 17.037 155.089 17.1029C159.324 17.1029 161.834 19.5858 161.834 24.944Z" fill="white"/>
<path d="M43.8595 17.0488C35.4908 17.0488 32.744 19.87 32.2231 22.8264H41.7555L41.8028 22.7385C42.087 22.2649 42.4794 21.974 43.7512 21.974C45.0231 21.974 45.5982 22.3123 45.7267 23.1376V23.3203L42.4252 23.53C33.9347 24.0036 31.9863 25.5596 31.9863 28.1575C31.9863 30.3021 33.6303 31.9528 38.6028 31.9528C43.44 31.9528 46.2409 30.2006 47.2354 27.7651L50.8684 31.4116H55.1576V25.0522C55.1576 19.7414 52.4379 17.0488 43.8595 17.0488ZM45.835 25.3905C45.835 26.2497 44.8608 27.1833 42.7094 27.1833C41.6405 27.1833 41.4172 26.7774 41.4172 26.4391C41.4172 25.8235 42.1479 25.5123 43.9542 25.3566L45.835 25.2146V25.3905Z" fill="white"/>
<path d="M114.631 26.7502C113.427 26.7502 112.778 26.3579 112.541 25.3363V25.2077H126.545C126.607 24.7594 126.636 24.3072 126.633 23.8547C126.633 20.1676 123.521 17.0894 115.132 17.0894C106.499 17.0894 103.259 20.3299 103.259 24.308V24.7815C103.259 28.7595 106.499 32.0001 115.132 32.0001C123.189 32.0001 125.909 29.294 126.457 26.2225H116.641C116.329 26.4661 116.045 26.7502 114.631 26.7502ZM112.602 23.1714C112.893 22.3054 113.569 21.9401 114.875 21.9401C116.289 21.9401 116.904 22.3054 117.101 23.1714V23.327H112.541L112.602 23.1714Z" fill="white"/>
<path d="M89.1057 26.5135C89.2342 26.9059 89.5996 27.2712 91.1691 27.2712C92.7387 27.2712 93.0566 26.7977 93.0566 26.5135C93.0566 26.2294 92.8199 25.7558 90.1002 25.6273C81.1023 25.3634 79.4854 24.0848 79.4854 21.7304C79.4854 19.3761 81.7856 17.0488 90.655 17.0488C99.5243 17.0488 101.98 19.5858 102.264 22.4611H92.6101C92.5019 22.0687 92.1095 21.7304 90.7023 21.7304C89.2951 21.7304 88.923 22.1499 88.923 22.4611C88.923 22.7723 89.1733 23.2188 91.893 23.3271C100.891 23.5638 102.603 24.9237 102.603 27.2983C102.603 29.6729 100.248 31.9528 91.23 31.9528C81.9953 31.9528 79.5936 29.497 79.3027 26.5406L89.1057 26.5135Z" fill="white"/>
</svg>
